<?xml version="1.0" encoding="UTF-8"?>
<svg xmlns="http://www.w3.org/2000/svg" xmlns:xlink="http://www.w3.org/1999/xlink" id="svg_canvas" data-noselect="" viewBox="0 0 800 600" width="800" height="600" preserveAspectRatio="none" version="1.1">
  <defs/>
  <g id="background" data-noselect="">
    <rect fill="#ffffff" width="800" height="600" data-noselect=""/>
    <!---->
  </g>
  <g id="shape_e4wlUuHCRH" transform="translate(228.11156350589005,239.30437249361503) rotate(0,60.695627506387,60.695627506387) scale(1,1)" filter="" style="cursor: move; opacity: 1;">
    <g>
      <rect fill="rgba(0,0,0,0)" width="141.39125501277" height="141.39125501277" x="-10" y="-10"/>
      <svg xmlns="http://www.w3.org/2000/svg" xmlns:xlink="http://www.w3.org/1999/xlink" version="1.1" id="图层_1" x="0px" y="0px" width="121.39125501277" height="121.39125501277" viewBox="0 0 194 194" style="enable-background:new 0 0 194 194;" xml:space="preserve" class="style-removed" preserveAspectRatio="none" data-parent="shape_e4wlUuHCRH">

<g>
	<path d="M93.5,0.9L33.6,24.7c-3.2,1.3-5.7,3.7-7.1,6.9L1.1,90.7c-1.4,3.1-1.4,6.7-0.1,9.9l23.8,59.8   c1.3,3.2,3.7,5.7,6.9,7.1l59.1,25.5c3.1,1.4,6.7,1.4,9.9,0.1l59.8-23.8c3.2-1.3,5.7-3.7,7.1-6.9l25.5-59.1c1.4-3.1,1.4-6.7,0.1-9.9   l-23.8-59.8c-1.3-3.2-3.7-5.7-6.9-7.1L103.3,1.1C100.2-0.3,96.6-0.4,93.5,0.9z" fill="#0064F0" stroke-width="0"/>
	<path d="M180.1,94.2c0,35.3-58.6,81.7-83.1,82.4c-42.1,1.2-78.5-58.3-78.5-98.4c0-41.2,47.4-65.8,80-65.8   C137.1,12.5,180.1,59.1,180.1,94.2z" fill="#103CF5" stroke-width="0"/>
	<path d="M57.1,38.9c3.3-12.6,24.5-22.6,46.6-6.9s14,24.9,34.8,37.5C163.9,85,173.1,87,163.8,111s-19.3,32.2-35.5,43.3   s-35.5,8.7-50.2,0s-35-30.4-41.4-38.7s-8.3-24.4,0-39.1S51.6,60.1,57.1,38.9z" fill="#0537C4" stroke-width="0"/>
</g>
</svg>
    </g>
  </g>
  <g id="shape_MnT6pDzHBM" transform="translate(277.8208755185003,16.089990211883787) rotate(0,186.51878048780486,283.90999999999997) scale(1,1)" filter="" style="cursor: move; opacity: 1;">
    <g>
      <svg xmlns="http://www.w3.org/2000/svg" xmlns:xlink="http://www.w3.org/1999/xlink" version="1.1" width="530.9775609756098" height="567.8199999999999" viewBox="0 0 530.9775609756098 567.8199999999999" data-parent="shape_MnT6pDzHBM">
        <rect fill="rgba(0,0,0,0)" width="215.09756097560975" height="94" x="78.97" y="236.91"/>
        <g data-width="213.45590999999996" transform="translate(78.97, 0)">
          <path d="M30.48 0L18.79 0L18.79-48.72L2.37-48.72L2.37-58.44L47.07-58.44L47.07-48.72L30.48-48.72L30.48 0Z" transform="translate(0 313.90999999999997) " fill="#000000" stroke="#000000" stroke-width="0.132" data-glyph-w="49.356249999999996" data-glyph-h="78.97" data-glyph-ascender="69.4936" data-glyph-descender="-9.4764"/>
          <path d="M28.03 0L7.19 0L7.19-58.44L26.53-58.44Q32.54-58.44 37.31-57.13Q42.09-55.83 44.89-52.67Q47.70-49.51 47.70-44.07L47.70-44.07Q47.70-40.04 45.61-36.44Q43.51-32.85 39.72-31.43L39.72-31.43L39.72-31.04Q44.54-29.93 47.62-26.53Q50.70-23.14 50.70-17.22L50.70-17.22Q50.70-11.37 47.70-7.54Q44.70-3.71 39.60-1.86Q34.51 0 28.03 0L28.03 0ZM18.87-49.51L18.87-34.67L25.67-34.67Q31.27-34.67 33.80-36.76Q36.33-38.85 36.33-42.33L36.33-42.33Q36.33-46.20 33.72-47.86Q31.11-49.51 25.82-49.51L25.82-49.51L18.87-49.51ZM18.87-25.98L18.87-9.00L27.01-9.00Q33.01-9.00 36.17-11.17Q39.33-13.35 39.33-17.93L39.33-17.93Q39.33-22.19 36.21-24.09Q33.09-25.98 27.01-25.98L27.01-25.98L18.87-25.98Z" transform="translate(49.356249999999996 313.90999999999997) " fill="#000000" stroke="#000000" stroke-width="0.132" data-glyph-w="53.77857" data-glyph-h="78.97" data-glyph-ascender="69.4936" data-glyph-descender="-9.4764"/>
          <path d="M30.40 1.11L30.40 1.11Q18.79 1.11 11.53-7.07Q4.26-15.24 4.26-29.46L4.26-29.46Q4.26-43.75 11.53-51.65Q18.79-59.54 30.40-59.54L30.40-59.54Q42.01-59.54 49.28-51.61Q56.54-43.67 56.54-29.46L56.54-29.46Q56.54-15.24 49.28-7.07Q42.01 1.11 30.40 1.11ZM30.40-9.00L30.40-9.00Q36.96-9.00 40.79-14.57Q44.62-20.14 44.62-29.46L44.62-29.46Q44.62-38.85 40.79-44.18Q36.96-49.51 30.40-49.51L30.40-49.51Q23.93-49.51 20.06-44.18Q16.19-38.85 16.19-29.46L16.19-29.46Q16.19-20.14 20.06-14.57Q23.93-9.00 30.40-9.00Z" transform="translate(103.13481999999999 313.90999999999997) " fill="#000000" stroke="#000000" stroke-width="0.132" data-glyph-w="60.8069" data-glyph-h="78.97" data-glyph-ascender="69.4936" data-glyph-descender="-9.4764"/>
          <path d="M13.50 0L1.11 0L17.53-30.17L2.13-58.44L15.08-58.44L20.93-46.43Q21.95-44.30 23.06-42.01L23.06-42.01Q24.01-39.80 25.27-37.19L25.27-37.19L25.67-37.19Q27.72-42.49 29.53-46.43L29.53-46.43L35.06-58.44L47.38-58.44L31.98-29.61L48.41 0L35.46 0L28.90-12.95Q27.72-15.32 26.61-17.85L26.61-17.85Q25.51-20.06 24.32-22.59L24.32-22.59L24.01-22.59Q21.80-17.37 19.74-12.95L19.74-12.95L13.50 0Z" transform="translate(163.94171999999998 313.90999999999997) " fill="#000000" stroke="#000000" stroke-width="0.132" data-glyph-w="49.51419" data-glyph-h="78.97" data-glyph-ascender="69.4936" data-glyph-descender="-9.4764"/>
        </g>
      </svg>
    </g>
  </g>
  <g id="shape_ugmfEdhMYl" transform="translate(177.53884483054514,-6.00002530726033) rotate(0,111.26829268292683,306) scale(1,1)" filter="" style="cursor: move; opacity: 1;">
    <g>
      <svg xmlns="http://www.w3.org/2000/svg" xmlns:xlink="http://www.w3.org/1999/xlink" version="1.1" width="392.5365853658536" height="612" viewBox="0 0 392.5365853658536 612" data-parent="shape_ugmfEdhMYl">
        <rect fill="rgba(0,0,0,0)" width="52.53658536585366" height="102" x="85" y="255"/>
        <g data-width="53.12500000000001" transform="translate(85, 0)">
          <path d="M32.81 0L20.23 0L20.23-52.45L2.55-52.45L2.55-62.90L50.66-62.90L50.66-52.45L32.81-52.45L32.81 0Z" transform="translate(0 338) " fill="#FFFFFF" stroke="#FFFFFF" stroke-width="0.142" data-glyph-w="53.12500000000001" data-glyph-h="85" data-glyph-ascender="74.80000000000001" data-glyph-descender="-10.200000000000001"/>
        </g>
      </svg>
    </g>
  </g>
  <!--
  <defs>
    <pattern id="wm_tile" x="0" y="0" width="20%" height="27%" patternunits="objectBoundingBox">
      <g id="wm_lm" transform="translate(-188.000000, -323.000000)" fill="#cccccc">
        <text font-size="15" transform="translate(270.490979, 373.245789) rotate(-390.000000) translate(-270.490979, -373.245789)">
          <tspan x="187.490979" opacity=".3" y="378.245789">copyright © copyright © </tspan>
        </text>
      </g>
    </pattern>
  </defs>
-->
  <rect x="0" y="0" width="100%" height="100%" style="fill: url(#wm_tile);"/>
</svg>
